# xmcd
#
# Track frame offsets:
#	150
#	17229
#	34768
#	49412
#	65358
#	83434
#	101251
#	119204
#	143677
#	159649
#	176763
#	199161
#	214353
#	231831
#	247288
#	258862
#
# Disc length: 3650 seconds
#
# Revision: 1
# Processed by: cddbd v1.5.2PL0 Copyright (c) Steve Scherf et al.
# Submitted via: audiograbber 1.83.01
#
DISCID=e90e4010
DTITLE=Various Artist - Now That's What I Call Acm Awards 50th Anniversary CD1
DYEAR=2015
DGENRE=Country
TTITLE0=Jason Aldean with Luke Bryan and Eric Church - The Only Way I Know
TTITLE1=Lee Brice - I Drive Your Truck
TTITLE2=Jason Aldean - Country Girl, Shake it for Me
TTITLE3=Blake Shelton - Honey Bee
TTITLE4=Taylor Swift - Mean
TTITLE5=Lady Antebellum - Need You Now
TTITLE6=Miranda Lambert - The House That Built Me
TTITLE7=Brad Paisley and Keith Urban - Start a Band
TTITLE8=Georg Strait - Give It Away
TTITLE9=Carrie Underwood - Jesus Take the Wheel
TTITLE10=Tim McGraw - Live Like You Were Dying
TTITLE11=Kenny Chesney - The Good Stuff
TTITLE12=Lee Ann Womack - I Hope You Dance
TTITLE13=Faith Hill - This Kiss
TTITLE14=Alan Jackson - Chattahoochee
TTITLE15=Brooks and Dunn - Boot Scootin' Boogie
EXTD=
EXTT0=
EXTT1=
EXTT2=
EXTT3=
EXTT4=
EXTT5=
EXTT6=
EXTT7=
EXTT8=
EXTT9=
EXTT10=
EXTT11=
EXTT12=
EXTT13=
EXTT14=
EXTT15=
PLAYORDER=
